<?xml version="1.0" encoding="iso-8859-1"?>
<!-- Generator: Adobe Illustrator 19.0.0, SVG Export Plug-In . SVG Version: 6.00 Build 0)  -->
<svg version="1.1" id="Capa_1" xmlns="http://www.w3.org/2000/svg" xmlns:xlink="http://www.w3.org/1999/xlink" x="0px" y="0px"
	 viewBox="0 0 480 480" style="enable-background:new 0 0 480 480;" xml:space="preserve">
<linearGradient id="SVGID_1_" gradientUnits="userSpaceOnUse" x1="-26.875" y1="557.891" x2="-26.875" y2="619.755" gradientTransform="matrix(8 0 0 -8 455 4941)">
	<stop  offset="0" style="stop-color:#006DF0"/>
	<stop  offset="1" style="stop-color:#00E7F0"/>
</linearGradient>
<path style="fill:url(#SVGID_1_);" d="M423.392,100.96c-0.399-0.963-0.983-1.838-1.72-2.576l-96-96
	c-0.738-0.737-1.613-1.321-2.576-1.72C322.119,0.239,321.066,0.013,320,0H64c-4.418,0-8,3.582-8,8v464c0,4.418,3.582,8,8,8h352
	c4.418,0,8-3.582,8-8V104C423.997,102.957,423.791,101.924,423.392,100.96z M328,27.312L396.688,96H328V27.312z M72,464V16h240v88
	c0,4.418,3.582,8,8,8h88v352H72z"/>
<linearGradient id="SVGID_2_" gradientUnits="userSpaceOnUse" x1="-37.875" y1="557.891" x2="-37.875" y2="619.755" gradientTransform="matrix(8 0 0 -8 455 4941)">
	<stop  offset="0" style="stop-color:#006DF0"/>
	<stop  offset="1" style="stop-color:#00E7F0"/>
</linearGradient>
<path style="fill:url(#SVGID_2_);" d="M104,120h24v24c0,4.418,3.582,8,8,8h32c4.418,0,8-3.582,8-8v-24h24c4.418,0,8-3.582,8-8V80
	c0-4.418-3.582-8-8-8h-24V48c0-4.418-3.582-8-8-8h-32c-4.418,0-8,3.582-8,8v24h-24c-4.418,0-8,3.582-8,8v32
	C96,116.418,99.582,120,104,120z M112,88h24c4.418,0,8-3.582,8-8V56h16v24c0,4.418,3.582,8,8,8h24v16h-24c-4.418,0-8,3.582-8,8v24
	h-16v-24c0-4.418-3.582-8-8-8h-24V88z"/>
<g>
	
		<linearGradient id="SVGID_3_" gradientUnits="userSpaceOnUse" x1="-26.875" y1="557.891" x2="-26.875" y2="619.755" gradientTransform="matrix(8 0 0 -8 455 4941)">
		<stop  offset="0" style="stop-color:#006DF0"/>
		<stop  offset="1" style="stop-color:#00E7F0"/>
	</linearGradient>
	<path style="fill:url(#SVGID_3_);" d="M376,232H104c-4.418,0-8,3.582-8,8s3.582,8,8,8h272c4.418,0,8-3.582,8-8S380.418,232,376,232
		z"/>
	
		<linearGradient id="SVGID_4_" gradientUnits="userSpaceOnUse" x1="-26.875" y1="557.891" x2="-26.875" y2="619.755" gradientTransform="matrix(8 0 0 -8 455 4941)">
		<stop  offset="0" style="stop-color:#006DF0"/>
		<stop  offset="1" style="stop-color:#00E7F0"/>
	</linearGradient>
	<path style="fill:url(#SVGID_4_);" d="M376,280H104c-4.418,0-8,3.582-8,8s3.582,8,8,8h272c4.418,0,8-3.582,8-8S380.418,280,376,280
		z"/>
	
		<linearGradient id="SVGID_5_" gradientUnits="userSpaceOnUse" x1="-26.875" y1="557.891" x2="-26.875" y2="619.755" gradientTransform="matrix(8 0 0 -8 455 4941)">
		<stop  offset="0" style="stop-color:#006DF0"/>
		<stop  offset="1" style="stop-color:#00E7F0"/>
	</linearGradient>
	<path style="fill:url(#SVGID_5_);" d="M376,328H104c-4.418,0-8,3.582-8,8s3.582,8,8,8h272c4.418,0,8-3.582,8-8S380.418,328,376,328
		z"/>
	
		<linearGradient id="SVGID_6_" gradientUnits="userSpaceOnUse" x1="-26.875" y1="557.891" x2="-26.875" y2="619.755" gradientTransform="matrix(8 0 0 -8 455 4941)">
		<stop  offset="0" style="stop-color:#006DF0"/>
		<stop  offset="1" style="stop-color:#00E7F0"/>
	</linearGradient>
	<path style="fill:url(#SVGID_6_);" d="M376,376H104c-4.418,0-8,3.582-8,8s3.582,8,8,8h272c4.418,0,8-3.582,8-8S380.418,376,376,376
		z"/>
</g>
<g>
</g>
<g>
</g>
<g>
</g>
<g>
</g>
<g>
</g>
<g>
</g>
<g>
</g>
<g>
</g>
<g>
</g>
<g>
</g>
<g>
</g>
<g>
</g>
<g>
</g>
<g>
</g>
<g>
</g>
</svg>
